<?xml version="1.0" encoding="utf-8"?>
<!-- Svg Vector Icons : http://www.onlinewebfonts.com/icon -->
<!DOCTYPE svg PUBLIC "-//W3C//DTD SVG 1.1//EN" "http://www.w3.org/Graphics/SVG/1.1/DTD/svg11.dtd">
<svg version="1.1" xmlns="http://www.w3.org/2000/svg" xmlns:xlink="http://www.w3.org/1999/xlink" x="0px" y="0px" viewBox="0 0 256 256" enable-background="new 0 0 256 256" xml:space="preserve">
<metadata> Svg Vector Icons : http://www.onlinewebfonts.com/icon </metadata>
<g><g><path fill="#000000" d="M216.5,246h-177C23.2,246,10,232.8,10,216.5v-177C10,23.2,23.2,10,39.5,10h177c16.3,0,29.5,13.2,29.5,29.5v177C246,232.8,232.8,246,216.5,246z M231.3,39.5c0-8.1-6.6-14.8-14.8-14.8h-177c-8.1,0-14.8,6.6-14.8,14.8v177c0,8.1,6.6,14.8,14.8,14.8h177c8.1,0,14.8-6.6,14.8-14.8V39.5z M194.4,209.1h-44.2c-8.1,0-14.8-6.6-14.8-14.8v-44.2c0-8.1,6.6-14.8,14.8-14.8h44.3c8.1,0,14.8,6.6,14.8,14.8v44.3C209.1,202.5,202.5,209.1,194.4,209.1z M194.4,150.1h-44.2v44.3h44.3L194.4,150.1L194.4,150.1z M194.4,120.6h-44.2c-8.1,0-14.8-6.6-14.8-14.8V61.6c0-8.1,6.6-14.8,14.8-14.8h44.3c8.1,0,14.8,6.6,14.8,14.8v44.3C209.1,114,202.5,120.6,194.4,120.6z M194.4,61.6h-44.2v44.3h44.3L194.4,61.6L194.4,61.6z M105.9,209.1H61.6c-8.1,0-14.8-6.6-14.8-14.8v-44.2c0-8.1,6.6-14.8,14.8-14.8h44.3c8.1,0,14.8,6.6,14.8,14.8v44.3C120.6,202.5,114,209.1,105.9,209.1z M105.9,150.1H61.6v44.3h44.3L105.9,150.1L105.9,150.1z M105.9,120.6H61.6c-8.1,0-14.8-6.6-14.8-14.8V61.6c0-8.1,6.6-14.8,14.8-14.8h44.3c8.1,0,14.8,6.6,14.8,14.8v44.3C120.6,114,114,120.6,105.9,120.6z M105.9,61.6H61.6v44.3h44.3L105.9,61.6L105.9,61.6z"/></g></g>
</svg>